OLD-Bold.ufo
<glyph name="quotedbl" format="1">
  <advance width="763"/>
  <unicode hex="0022"/>
  <outline>
    <contour>
      <point x="478" y="903" type="line"/>
      <point x="611" y="903" type="line"/>
      <point x="661" y="1460" type="line"/>
      <point x="433" y="1460" type="line"/>
    </contour>
    <contour>
      <point x="146" y="903" type="line"/>
      <point x="280" y="903" type="line"/>
      <point x="329" y="1460" type="line"/>
      <point x="102" y="1460" type="line"/>
    </contour>
  </outline>
</glyph>
<glyph name="dollar" format="1">
  <advance width="1167"/>
  <unicode hex="0024"/>
  <outline>
    <component base="S"/>
    <contour>
      <point x="658" y="1735" type="line"/>
      <point x="572" y="1735" type="line"/>
      <point x="534" y="1404" type="line"/>
      <point x="701" y="1404" type="line"/>
    </contour>
    <contour>
      <point x="573" y="-278" type="line"/>
      <point x="659" y="-278" type="line"/>
      <point x="692" y="53" type="line"/>
      <point x="525" y="53" type="line"/>
    </contour>
  </outline>
</glyph>
<glyph name="ampersand" format="1">
  <advance width="1414"/>
  <unicode hex="0026"/>
  <outline>
    <contour>
      <point x="635" y="-18" type="curve" smooth="yes"/>
      <point x="813" y="-18"/>
      <point x="906" y="18"/>
      <point x="1032" y="111" type="curve"/>
      <point x="1166" y="-16" type="line"/>
      <point x="1365" y="61" type="line"/>
      <point x="1182" y="248" type="line"/>
      <point x="1248" y="319"/>
      <point x="1318" y="427"/>
      <point x="1359" y="513" type="curve"/>
      <point x="1206" y="613" type="line"/>
      <point x="1170" y="539"/>
      <point x="1108" y="438"/>
      <point x="1057" y="381" type="curve"/>
      <point x="704" y="771" type="line"/>
      <point x="872" y="859"/>
      <point x="1031" y="994"/>
      <point x="1031" y="1171" type="curve" smooth="yes"/>
      <point x="1031" y="1383"/>
      <point x="846" y="1476"/>
      <point x="655" y="1476" type="curve" smooth="yes"/>
      <point x="447" y="1476"/>
      <point x="265" y="1357"/>
      <point x="265" y="1145" type="curve" smooth="yes"/>
      <point x="265" y="1018"/>
      <point x="327" y="902"/>
      <point x="415" y="804" type="curve"/>
      <point x="253" y="713"/>
      <point x="129" y="604"/>
      <point x="129" y="392" type="curve" smooth="yes"/>
      <point x="129" y="116"/>
      <point x="346" y="-18"/>
    </contour>
    <contour>
      <point x="644" y="156" type="curve" smooth="yes"/>
      <point x="475" y="156"/>
      <point x="347" y="234"/>
      <point x="347" y="401" type="curve" smooth="yes"/>
      <point x="347" y="524"/>
      <point x="418" y="613"/>
      <point x="523" y="674" type="curve"/>
      <point x="911" y="244" type="line"/>
      <point x="840" y="187"/>
      <point x="757" y="156"/>
    </contour>
    <contour>
      <point x="599" y="895" type="curve"/>
      <point x="515" y="979"/>
      <point x="473" y="1072"/>
      <point x="473" y="1162" type="curve" smooth="yes"/>
      <point x="473" y="1266"/>
      <point x="555" y="1319"/>
      <point x="660" y="1319" type="curve" smooth="yes"/>
      <point x="763" y="1319"/>
      <point x="827" y="1268"/>
      <point x="827" y="1166" type="curve" smooth="yes"/>
      <point x="827" y="1050"/>
      <point x="714" y="954"/>
    </contour>
  </outline>
</glyph>
<glyph name="quotesingle" format="1">
  <advance width="448"/>
  <unicode hex="0027"/>
  <outline>
    <contour>
      <point x="167" y="925" type="line"/>
      <point x="304" y="925" type="line"/>
      <point x="327" y="1449" type="line"/>
      <point x="140" y="1449" type="line"/>
    </contour>
  </outline>
</glyph>
<glyph name="seven" format="1">
  <advance width="1217"/>
  <unicode hex="0037"/>
  <outline>
    <contour>
      <point x="343" y="0" type="line"/>
      <point x="588" y="0" type="line"/>
      <point x="1068" y="1298" type="line"/>
      <point x="1068" y="1457" type="line"/>
      <point x="178" y="1457" type="line"/>
      <point x="186" y="1266" type="line"/>
      <point x="811" y="1266" type="line"/>
    </contour>
  </outline>
</glyph>
<glyph name="A" format="1">
  <advance width="1365"/>
  <unicode hex="0041"/>
  <outline>
    <contour>
      <point x="28" y="0" type="line"/>
      <point x="273" y="0" type="line"/>
      <point x="439" y="488" type="line"/>
      <point x="354" y="424" type="line"/>
      <point x="1011" y="424" type="line"/>
      <point x="924" y="484" type="line"/>
      <point x="1097" y="0" type="line"/>
      <point x="1337" y="0" type="line"/>
      <point x="828" y="1460" type="line"/>
      <point x="537" y="1460" type="line"/>
    </contour>
    <contour>
      <point x="449" y="521" type="line"/>
      <point x="708" y="1329" type="line"/>
      <point x="660" y="1329" type="line"/>
      <point x="913" y="522" type="line"/>
      <point x="961" y="594" type="line"/>
      <point x="404" y="594" type="line"/>
    </contour>
  </outline>
</glyph>
<glyph name="E" format="1">
  <advance width="1161"/>
  <unicode hex="0045"/>
  <outline>
    <contour>
      <point x="148" y="0" type="line"/>
      <point x="1077" y="0" type="line"/>
      <point x="1085" y="191" type="line"/>
      <point x="318" y="191" type="line"/>
      <point x="388" y="122" type="line"/>
      <point x="388" y="738" type="line"/>
      <point x="317" y="667" type="line"/>
      <point x="1015" y="667" type="line"/>
      <point x="1015" y="854" type="line"/>
      <point x="318" y="854" type="line"/>
      <point x="388" y="785" type="line"/>
      <point x="388" y="1342" type="line"/>
      <point x="318" y="1274" type="line"/>
      <point x="1058" y="1274" type="line"/>
      <point x="1068" y="1460" type="line"/>
      <point x="148" y="1460" type="line"/>
    </contour>
  </outline>
</glyph>
<glyph name="F" format="1">
  <advance width="1102"/>
  <unicode hex="0046"/>
  <outline>
    <contour>
      <point x="148" y="0" type="line"/>
      <point x="388" y="0" type="line"/>
      <point x="388" y="720" type="line"/>
      <point x="301" y="638" type="line"/>
      <point x="1004" y="638" type="line"/>
      <point x="1004" y="822" type="line"/>
      <point x="296" y="822" type="line"/>
      <point x="388" y="753" type="line"/>
      <point x="388" y="1348" type="line"/>
      <point x="292" y="1267" type="line"/>
      <point x="1060" y="1267" type="line"/>
      <point x="1071" y="1460" type="line"/>
      <point x="148" y="1460" type="line"/>
    </contour>
  </outline>
</glyph>
<glyph name="I" format="1">
  <advance width="844"/>
  <unicode hex="0049"/>
  <outline>
    <contour>
      <point x="98" y="1460" type="line"/>
      <point x="98" y="1310" type="line"/>
      <point x="373" y="1310" type="line"/>
      <point x="304" y="1366" type="line"/>
      <point x="304" y="88" type="line"/>
      <point x="374" y="150" type="line"/>
      <point x="98" y="150" type="line"/>
      <point x="98" y="0" type="line"/>
      <point x="746" y="0" type="line"/>
      <point x="746" y="150" type="line"/>
      <point x="467" y="150" type="line"/>
      <point x="544" y="88" type="line"/>
      <point x="544" y="1368" type="line"/>
      <point x="468" y="1310" type="line"/>
      <point x="746" y="1310" type="line"/>
      <point x="746" y="1460" type="line"/>
    </contour>
  </outline>
</glyph>
<glyph name="N" format="1">
  <advance width="1526"/>
  <unicode hex="004E"/>
  <outline>
    <contour>
      <point x="148" y="0" type="line"/>
      <point x="376" y="0" type="line"/>
      <point x="376" y="583" type="line"/>
      <point x="358" y="1222" type="line"/>
      <point x="304" y="1215" type="line"/>
      <point x="1106" y="0" type="line"/>
      <point x="1378" y="0" type="line"/>
      <point x="1378" y="1460" type="line"/>
      <point x="1150" y="1460" type="line"/>
      <point x="1150" y="771" type="line"/>
      <point x="1163" y="230" type="line"/>
      <point x="1213" y="231" type="line"/>
      <point x="410" y="1460" type="line"/>
      <point x="148" y="1460" type="line"/>
    </contour>
  </outline>
</glyph>
<glyph name="V" format="1">
  <advance width="1334"/>
  <unicode hex="0056"/>
  <outline>
    <contour>
      <point x="525" y="0" type="line"/>
      <point x="793" y="0" type="line"/>
      <point x="1304" y="1460" type="line"/>
      <point x="1049" y="1460" type="line"/>
      <point x="768" y="589" type="line"/>
      <point x="634" y="173" type="line"/>
      <point x="702" y="173" type="line"/>
      <point x="573" y="587" type="line"/>
      <point x="290" y="1460" type="line"/>
      <point x="30" y="1460" type="line"/>
    </contour>
  </outline>
</glyph>
<glyph name="W" format="1">
  <advance width="2048"/>
  <unicode hex="0057"/>
  <outline>
    <contour>
      <point x="445" y="0" type="line"/>
      <point x="683" y="0" type="line"/>
      <point x="1051" y="1199" type="line"/>
      <point x="1002" y="1199" type="line"/>
      <point x="1341" y="0" type="line"/>
      <point x="1588" y="0" type="line"/>
      <point x="2014" y="1460" type="line"/>
      <point x="1768" y="1460" type="line"/>
      <point x="1439" y="255" type="line"/>
      <point x="1477" y="255" type="line"/>
      <point x="1141" y="1442" type="line"/>
      <point x="908" y="1442" type="line"/>
      <point x="551" y="255" type="line"/>
      <point x="592" y="255" type="line"/>
      <point x="280" y="1460" type="line"/>
      <point x="34" y="1460" type="line"/>
    </contour>
  </outline>
</glyph>
<glyph name="Y" format="1">
  <advance width="1260"/>
  <unicode hex="0059"/>
  <outline>
    <contour>
      <point x="515" y="0" type="line"/>
      <point x="755" y="0" type="line"/>
      <point x="755" y="672" type="line"/>
      <point x="707" y="477" type="line"/>
      <point x="1236" y="1460" type="line"/>
      <point x="983" y="1460" type="line"/>
      <point x="599" y="716" type="line"/>
      <point x="669" y="716" type="line"/>
      <point x="280" y="1460" type="line"/>
      <point x="24" y="1460" type="line"/>
      <point x="570" y="464" type="line"/>
      <point x="515" y="668" type="line"/>
    </contour>
  </outline>
</glyph>
<glyph name="Z" format="1">
  <advance width="1242"/>
  <unicode hex="005A"/>
  <outline>
    <contour>
      <point x="143" y="0" type="line"/>
      <point x="1132" y="0" type="line"/>
      <point x="1140" y="180" type="line"/>
      <point x="345" y="180" type="line"/>
      <point x="379" y="103" type="line"/>
      <point x="1127" y="1293" type="line"/>
      <point x="1124" y="1460" type="line"/>
      <point x="163" y="1460" type="line"/>
      <point x="163" y="1280" type="line"/>
      <point x="936" y="1280" type="line"/>
      <point x="895" y="1348" type="line"/>
      <point x="143" y="160" type="line"/>
    </contour>
  </outline>
</glyph>
<glyph name="grave" format="1">
  <advance width="544"/>
  <unicode hex="0060"/>
  <outline>
    <contour>
      <point x="360" y="1058" type="line"/>
      <point x="501" y="1058" type="line"/>
      <point x="316" y="1460" type="line"/>
      <point x="51" y="1460" type="line"/>
    </contour>
  </outline>
</glyph>
<glyph name="d" format="1">
  <advance width="1183"/>
  <unicode hex="0064"/>
  <outline>
    <contour>
      <point x="528" y="-18" type="curve" smooth="yes"/>
      <point x="743" y="-18"/>
      <point x="844" y="102"/>
      <point x="892" y="267" type="curve"/>
      <point x="841" y="267" type="line"/>
      <point x="874" y="0" type="line"/>
      <point x="1055" y="0" type="line"/>
      <point x="1055" y="1480" type="line"/>
      <point x="831" y="1460" type="line"/>
      <point x="831" y="1110" type="line"/>
      <point x="842" y="862" type="line"/>
      <point x="879" y="878" type="line"/>
      <point x="818" y="994"/>
      <point x="714" y="1076"/>
      <point x="527" y="1076" type="curve" smooth="yes"/>
      <point x="250" y="1076"/>
      <point x="74" y="858"/>
      <point x="74" y="537" type="curve" smooth="yes"/>
      <point x="74" y="199"/>
      <point x="245" y="-18"/>
    </contour>
    <contour>
      <point x="571" y="152" type="curve" smooth="yes"/>
      <point x="397" y="152"/>
      <point x="300" y="274"/>
      <point x="300" y="533" type="curve" smooth="yes"/>
      <point x="300" y="798"/>
      <point x="418" y="904"/>
      <point x="582" y="904" type="curve" smooth="yes"/>
      <point x="745" y="904"/>
      <point x="840" y="796"/>
      <point x="840" y="518" type="curve"/>
      <point x="839" y="275"/>
      <point x="749" y="152"/>
    </contour>
  </outline>
</glyph>
<glyph name="e" format="1">
  <advance width="1049"/>
  <unicode hex="0065"/>
  <outline>
    <contour>
      <point x="306" y="565" type="line"/>
      <point x="306" y="785"/>
      <point x="414" y="904"/>
      <point x="562" y="904" type="curve" smooth="yes"/>
      <point x="711" y="904"/>
      <point x="776" y="785"/>
      <point x="776" y="565" type="curve"/>
      <point x="821" y="613" type="line"/>
      <point x="249" y="613" type="line"/>
    </contour>
    <contour>
      <point x="624" y="-18" type="curve" smooth="yes"/>
      <point x="756" y="-18"/>
      <point x="856" y="11"/>
      <point x="936" y="64" type="curve"/>
      <point x="902" y="218" type="line"/>
      <point x="842" y="188"/>
      <point x="758" y="151"/>
      <point x="633" y="151" type="curve" smooth="yes"/>
      <point x="461" y="151"/>
      <point x="302" y="232"/>
      <point x="302" y="507" type="curve"/>
      <point x="248" y="462" type="line"/>
      <point x="963" y="462" type="line"/>
      <point x="963" y="462"/>
      <point x="971" y="547"/>
      <point x="971" y="567" type="curve" smooth="yes"/>
      <point x="971" y="861"/>
      <point x="825" y="1076"/>
      <point x="558" y="1076" type="curve" smooth="yes"/>
      <point x="277" y="1076"/>
      <point x="76" y="865"/>
      <point x="76" y="528" type="curve" smooth="yes"/>
      <point x="76" y="168"/>
      <point x="321" y="-18"/>
    </contour>
  </outline>
</glyph>
<glyph name="g" format="1">
  <advance width="1176"/>
  <unicode hex="0067"/>
  <outline>
    <contour>
      <point x="564" y="187" type="curve" smooth="yes"/>
      <point x="363" y="187"/>
      <point x="300" y="347"/>
      <point x="300" y="540" type="curve" smooth="yes"/>
      <point x="300" y="739"/>
      <point x="373" y="904"/>
      <point x="570" y="904" type="curve" smooth="yes"/>
      <point x="761" y="904"/>
      <point x="833" y="774"/>
      <point x="833" y="566" type="curve" smooth="yes"/>
      <point x="833" y="512" type="line"/>
      <point x="832" y="322"/>
      <point x="761" y="187"/>
    </contour>
    <contour>
      <point x="541" y="-455" type="curve" smooth="yes"/>
      <point x="914" y="-455"/>
      <point x="1054" y="-216"/>
      <point x="1054" y="68" type="curve" smooth="yes"/>
      <point x="1054" y="1058" type="line"/>
      <point x="848" y="1058" type="line"/>
      <point x="831" y="830" type="line"/>
      <point x="866" y="837" type="line"/>
      <point x="819" y="994"/>
      <point x="701" y="1076"/>
      <point x="536" y="1076" type="curve" smooth="yes"/>
      <point x="261" y="1076"/>
      <point x="74" y="858"/>
      <point x="74" y="533" type="curve" smooth="yes"/>
      <point x="74" y="243"/>
      <point x="242" y="17"/>
      <point x="527" y="17" type="curve" smooth="yes"/>
      <point x="705" y="17"/>
      <point x="848" y="119"/>
      <point x="885" y="316" type="curve"/>
      <point x="840" y="323" type="line"/>
      <point x="840" y="292"/>
      <point x="854" y="161"/>
      <point x="854" y="42" type="curve" smooth="yes"/>
      <point x="854" y="-123"/>
      <point x="768" y="-279"/>
      <point x="513" y="-279" type="curve" smooth="yes"/>
      <point x="436" y="-279"/>
      <point x="343" y="-264"/>
      <point x="233" y="-232" type="curve"/>
      <point x="206" y="-404" type="line"/>
      <point x="334" y="-439"/>
      <point x="445" y="-455"/>
    </contour>
  </outline>
</glyph>
<glyph name="h" format="1">
  <advance width="1141"/>
  <unicode hex="0068"/>
  <outline>
    <contour>
      <point x="128" y="0" type="line"/>
      <point x="350" y="0" type="line"/>
      <point x="350" y="539" type="line" smooth="yes"/>
      <point x="350" y="741"/>
      <point x="402" y="904"/>
      <point x="622" y="904" type="curve" smooth="yes"/>
      <point x="759" y="904"/>
      <point x="807" y="820"/>
      <point x="807" y="640" type="curve" smooth="yes"/>
      <point x="807" y="0" type="line"/>
      <point x="1031" y="0" type="line"/>
      <point x="1031" y="657" type="line" smooth="yes"/>
      <point x="1031" y="938"/>
      <point x="892" y="1076"/>
      <point x="665" y="1076" type="curve" smooth="yes"/>
      <point x="501" y="1076"/>
      <point x="359" y="981"/>
      <point x="307" y="786" type="curve"/>
      <point x="343" y="786" type="line"/>
      <point x="352" y="1133" type="line"/>
      <point x="352" y="1480" type="line"/>
      <point x="128" y="1460" type="line"/>
    </contour>
  </outline>
</glyph>
<glyph name="i" format="1">
  <advance width="518"/>
  <unicode hex="0069"/>
  <outline>
    <contour>
      <point x="264" y="1460" type="curve" smooth="yes"/>
      <point x="345" y="1460"/>
      <point x="401" y="1420"/>
      <point x="401" y="1340" type="curve" smooth="yes"/>
      <point x="401" y="1260"/>
      <point x="345" y="1220"/>
      <point x="264" y="1220" type="curve" smooth="yes"/>
      <point x="183" y="1220"/>
      <point x="126" y="1260"/>
      <point x="126" y="1340" type="curve" smooth="yes"/>
      <point x="126" y="1420"/>
      <point x="183" y="1460"/>
    </contour>
    <contour>
      <point x="158" y="0" type="line"/>
      <point x="378" y="0" type="line"/>
      <point x="378" y="1058" type="line"/>
      <point x="158" y="1058" type="line"/>
    </contour>
  </outline>
</glyph>
<glyph name="k" format="1">
  <advance width="1069"/>
  <unicode hex="006B"/>
  <outline>
    <contour>
      <point x="128" y="0" type="line"/>
      <point x="350" y="0" type="line"/>
      <point x="350" y="433" type="line"/>
      <point x="296" y="320" type="line"/>
      <point x="492" y="504" type="line"/>
      <point x="420" y="504" type="line"/>
      <point x="820" y="0" type="line"/>
      <point x="1083" y="0" type="line"/>
      <point x="578" y="627" type="line"/>
      <point x="568" y="525" type="line"/>
      <point x="1061" y="1058" type="line"/>
      <point x="786" y="1058" type="line"/>
      <point x="302" y="526" type="line"/>
      <point x="343" y="526" type="line"/>
      <point x="350" y="783" type="line"/>
      <point x="350" y="1480" type="line"/>
      <point x="128" y="1460" type="line"/>
    </contour>
  </outline>
</glyph>
<glyph name="l" format="1">
  <advance width="644"/>
  <unicode hex="006C"/>
  <outline>
    <contour>
      <point x="597" y="-6" type="line"/>
      <point x="610" y="159" type="line"/>
      <point x="515" y="167" type="line" smooth="yes"/>
      <point x="404" y="176"/>
      <point x="360" y="207"/>
      <point x="360" y="309" type="curve" smooth="yes"/>
      <point x="360" y="1480" type="line"/>
      <point x="138" y="1460" type="line"/>
      <point x="138" y="327" type="line" smooth="yes"/>
      <point x="138" y="56"/>
      <point x="263" y="-6"/>
      <point x="525" y="-6" type="curve" smooth="yes"/>
    </contour>
  </outline>
</glyph>
<glyph name="n" format="1">
  <advance width="1160"/>
  <unicode hex="006E"/>
  <outline>
    <contour>
      <point x="126" y="0" type="line"/>
      <point x="350" y="0" type="line"/>
      <point x="350" y="529" type="line" smooth="yes"/>
      <point x="350" y="724"/>
      <point x="438" y="904"/>
      <point x="620" y="904" type="curve" smooth="yes"/>
      <point x="767" y="904"/>
      <point x="822" y="807"/>
      <point x="822" y="628" type="curve" smooth="yes"/>
      <point x="822" y="0" type="line"/>
      <point x="1046" y="0" type="line"/>
      <point x="1046" y="646" type="line" smooth="yes"/>
      <point x="1046" y="922"/>
      <point x="903" y="1076"/>
      <point x="676" y="1076" type="curve" smooth="yes"/>
      <point x="448" y="1076"/>
      <point x="358" y="942"/>
      <point x="307" y="786" type="curve"/>
      <point x="343" y="786" type="line"/>
      <point x="311" y="1058" type="line"/>
      <point x="126" y="1058" type="line"/>
    </contour>
  </outline>
</glyph>
<glyph name="q" format="1">
  <advance width="1173"/>
  <unicode hex="0071"/>
  <outline>
    <contour>
      <point x="833" y="-441" type="line"/>
      <point x="1057" y="-429" type="line"/>
      <point x="1057" y="1058" type="line"/>
      <point x="857" y="1058" type="line"/>
      <point x="833" y="786" type="line"/>
      <point x="877" y="786" type="line"/>
      <point x="822" y="967"/>
      <point x="722" y="1076"/>
      <point x="527" y="1076" type="curve" smooth="yes"/>
      <point x="257" y="1076"/>
      <point x="74" y="859"/>
      <point x="74" y="528" type="curve" smooth="yes"/>
      <point x="74" y="198"/>
      <point x="255" y="-18"/>
      <point x="528" y="-18" type="curve" smooth="yes"/>
      <point x="748" y="-18"/>
      <point x="848" y="119"/>
      <point x="884" y="297" type="curve"/>
      <point x="840" y="297" type="line"/>
      <point x="833" y="-20" type="line"/>
    </contour>
    <contour>
      <point x="567" y="152" type="curve" smooth="yes"/>
      <point x="402" y="152"/>
      <point x="300" y="286"/>
      <point x="300" y="531" type="curve" smooth="yes"/>
      <point x="300" y="776"/>
      <point x="408" y="904"/>
      <point x="565" y="904" type="curve" smooth="yes"/>
      <point x="751" y="904"/>
      <point x="838" y="784"/>
      <point x="838" y="531" type="curve" smooth="yes"/>
      <point x="837" y="273"/>
      <point x="746" y="152"/>
    </contour>
  </outline>
</glyph>
<glyph name="r" format="1">
  <advance width="775"/>
  <unicode hex="0072"/>
  <outline>
    <contour>
      <point x="132" y="0" type="line"/>
      <point x="356" y="0" type="line"/>
      <point x="356" y="584" type="line" smooth="yes"/>
      <point x="356" y="797"/>
      <point x="475" y="893"/>
      <point x="656" y="893" type="curve" smooth="yes"/>
      <point x="680" y="893"/>
      <point x="707" y="892"/>
      <point x="737" y="886" type="curve"/>
      <point x="742" y="1059" type="line"/>
      <point x="717" y="1064"/>
      <point x="692" y="1065"/>
      <point x="666" y="1065" type="curve" smooth="yes"/>
      <point x="538" y="1065"/>
      <point x="395" y="1023"/>
      <point x="313" y="786" type="curve"/>
      <point x="351" y="786" type="line"/>
      <point x="317" y="1058" type="line"/>
      <point x="132" y="1058" type="line"/>
    </contour>
  </outline>
</glyph>
<glyph name="s" format="1">
  <advance width="918"/>
  <unicode hex="0073"/>
  <outline>
    <contour>
      <point x="469" y="-18" type="curve" smooth="yes"/>
      <point x="668" y="-18"/>
      <point x="838" y="80"/>
      <point x="839" y="297" type="curve" smooth="yes"/>
      <point x="840" y="438"/>
      <point x="795" y="534"/>
      <point x="475" y="649" type="curve" smooth="yes"/>
      <point x="346" y="695"/>
      <point x="314" y="725"/>
      <point x="317" y="789" type="curve" smooth="yes"/>
      <point x="321" y="873"/>
      <point x="388" y="904"/>
      <point x="484" y="904" type="curve" smooth="yes"/>
      <point x="564" y="904"/>
      <point x="659" y="876"/>
      <point x="746" y="816" type="curve"/>
      <point x="806" y="989" type="line"/>
      <point x="708" y="1046"/>
      <point x="589" y="1076"/>
      <point x="479" y="1076" type="curve" smooth="yes"/>
      <point x="285" y="1076"/>
      <point x="114" y="994"/>
      <point x="115" y="787" type="curve" smooth="yes"/>
      <point x="116" y="606"/>
      <point x="179" y="540"/>
      <point x="473" y="439" type="curve" smooth="yes"/>
      <point x="622" y="388"/>
      <point x="631" y="348"/>
      <point x="631" y="291" type="curve" smooth="yes"/>
      <point x="631" y="206"/>
      <point x="577" y="155"/>
      <point x="464" y="155" type="curve" smooth="yes"/>
      <point x="378" y="155"/>
      <point x="259" y="186"/>
      <point x="129" y="257" type="curve"/>
      <point x="129" y="62" type="line"/>
      <point x="231" y="11"/>
      <point x="361" y="-18"/>
    </contour>
  </outline>
</glyph>
<glyph name="currency" format="1">
  <advance width="1152"/>
  <unicode hex="00A4"/>
  <outline>
    <contour>
      <point x="1029" y="227" type="line"/>
      <point x="1112" y="315" type="line"/>
      <point x="935" y="486" type="line"/>
      <point x="983" y="555"/>
      <point x="1008" y="634"/>
      <point x="1008" y="722" type="curve" smooth="yes"/>
      <point x="1008" y="808"/>
      <point x="981" y="888"/>
      <point x="934" y="958" type="curve"/>
      <point x="1113" y="1130" type="line"/>
      <point x="1029" y="1218" type="line"/>
      <point x="848" y="1048" type="line"/>
      <point x="778" y="1104"/>
      <point x="694" y="1134"/>
      <point x="600" y="1134" type="curve" smooth="yes"/>
      <point x="507" y="1134"/>
      <point x="420" y="1102"/>
      <point x="351" y="1049" type="curve"/>
      <point x="174" y="1218" type="line"/>
      <point x="85" y="1132" type="line"/>
      <point x="266" y="958" type="line"/>
      <point x="218" y="887"/>
      <point x="192" y="808"/>
      <point x="192" y="722" type="curve" smooth="yes"/>
      <point x="192" y="635"/>
      <point x="219" y="554"/>
      <point x="266" y="486" type="curve"/>
      <point x="86" y="314" type="line"/>
      <point x="174" y="228" type="line"/>
      <point x="350" y="396" type="line"/>
      <point x="420" y="341"/>
      <point x="505" y="312"/>
      <point x="600" y="312" type="curve" smooth="yes"/>
      <point x="694" y="312"/>
      <point x="779" y="343"/>
      <point x="848" y="397" type="curve"/>
    </contour>
    <contour>
      <point x="600" y="438" type="curve" smooth="yes"/>
      <point x="439" y="438"/>
      <point x="322" y="566"/>
      <point x="322" y="722" type="curve" smooth="yes"/>
      <point x="322" y="878"/>
      <point x="439" y="1008"/>
      <point x="600" y="1008" type="curve" smooth="yes"/>
      <point x="762" y="1008"/>
      <point x="880" y="878"/>
      <point x="880" y="722" type="curve" smooth="yes"/>
      <point x="880" y="566"/>
      <point x="764" y="438"/>
    </contour>
  </outline>
</glyph>
<glyph name="section" format="1">
  <advance width="918"/>
  <unicode hex="00A7"/>
  <outline>
    <contour>
      <point x="631" y="442" type="line"/>
      <point x="725" y="491"/>
      <point x="837" y="574"/>
      <point x="837" y="720" type="curve" smooth="yes"/>
      <point x="837" y="861"/>
      <point x="764" y="957"/>
      <point x="566" y="1023" type="curve" smooth="yes"/>
      <point x="477" y="1053" type="line" smooth="yes"/>
      <point x="348" y="1097"/>
      <point x="319" y="1129"/>
      <point x="319" y="1193" type="curve" smooth="yes"/>
      <point x="319" y="1267"/>
      <point x="390" y="1308"/>
      <point x="486" y="1308" type="curve" smooth="yes"/>
      <point x="566" y="1308"/>
      <point x="661" y="1280"/>
      <point x="748" y="1220" type="curve"/>
      <point x="808" y="1393" type="line"/>
      <point x="710" y="1450"/>
      <point x="591" y="1480"/>
      <point x="481" y="1480" type="curve" smooth="yes"/>
      <point x="287" y="1480"/>
      <point x="117" y="1387"/>
      <point x="117" y="1181" type="curve" smooth="yes"/>
      <point x="117" y="1029"/>
      <point x="179" y="943"/>
      <point x="369" y="879" type="curve" smooth="yes"/>
      <point x="475" y="843" type="line" smooth="yes"/>
      <point x="612" y="797"/>
      <point x="638" y="756"/>
      <point x="638" y="699" type="curve" smooth="yes"/>
      <point x="638" y="626"/>
      <point x="595" y="576"/>
      <point x="512" y="562" type="curve"/>
    </contour>
    <contour>
      <point x="471" y="-20" type="curve" smooth="yes"/>
      <point x="670" y="-20"/>
      <point x="837" y="74"/>
      <point x="837" y="314" type="curve" smooth="yes"/>
      <point x="837" y="455"/>
      <point x="764" y="551"/>
      <point x="566" y="617" type="curve" smooth="yes"/>
      <point x="477" y="647" type="line" smooth="yes"/>
      <point x="348" y="691"/>
      <point x="319" y="723"/>
      <point x="319" y="787" type="curve" smooth="yes"/>
      <point x="319" y="849"/>
      <point x="368" y="888"/>
      <point x="441" y="899" type="curve"/>
      <point x="343" y="1020" type="line"/>
      <point x="201" y="959"/>
      <point x="116" y="868.509"/>
      <point x="116" y="744" type="curve" smooth="yes"/>
      <point x="116" y="617"/>
      <point x="193" y="532"/>
      <point x="369" y="473" type="curve" smooth="yes"/>
      <point x="475" y="437" type="line" smooth="yes"/>
      <point x="612" y="391"/>
      <point x="638" y="350"/>
      <point x="638" y="293" type="curve" smooth="yes"/>
      <point x="638" y="208"/>
      <point x="579" y="153"/>
      <point x="466" y="153" type="curve" smooth="yes"/>
      <point x="380" y="153"/>
      <point x="261" y="184"/>
      <point x="131" y="255" type="curve"/>
      <point x="131" y="60" type="line"/>
      <point x="233" y="9"/>
      <point x="363" y="-20"/>
    </contour>
  </outline>
</glyph>
<glyph name="dieresis" format="1">
  <advance width="719"/>
  <unicode hex="00A8"/>
  <unicode hex="0308"/>
  <outline>
    <contour>
      <point x="719" y="1328" type="curve" smooth="yes"/>
      <point x="719" y="1400"/>
      <point x="666" y="1466"/>
      <point x="583" y="1466" type="curve" smooth="yes"/>
      <point x="499" y="1466"/>
      <point x="445" y="1400"/>
      <point x="445" y="1328" type="curve" smooth="yes"/>
      <point x="445" y="1256"/>
      <point x="500" y="1192"/>
      <point x="583" y="1192" type="curve" smooth="yes"/>
      <point x="666" y="1192"/>
      <point x="719" y="1257"/>
    </contour>
    <contour>
      <point x="138" y="1192" type="curve" smooth="yes"/>
      <point x="221" y="1192"/>
      <point x="274" y="1257"/>
      <point x="274" y="1328" type="curve" smooth="yes"/>
      <point x="274" y="1400"/>
      <point x="221" y="1466"/>
      <point x="138" y="1466" type="curve" smooth="yes"/>
      <point x="54" y="1466"/>
      <point x="0" y="1400"/>
      <point x="0" y="1328" type="curve" smooth="yes"/>
      <point x="0" y="1256"/>
      <point x="55" y="1192"/>
    </contour>
  </outline>
</glyph>
<glyph name="onehalf" format="1">
  <advance width="1647"/>
  <unicode hex="00BD"/>
  <outline>
    <contour>
      <point x="77" y="584" type="line"/>
      <point x="535" y="584" type="line"/>
      <point x="535" y="725" type="line"/>
      <point x="398" y="725" type="line"/>
      <point x="398" y="1460" type="line"/>
      <point x="263" y="1460" type="line"/>
      <point x="229" y="1435"/>
      <point x="109" y="1372"/>
      <point x="63" y="1353" type="curve"/>
      <point x="63" y="1211" type="line"/>
      <point x="78" y="1216"/>
      <point x="186" y="1264"/>
      <point x="223" y="1284" type="curve"/>
      <point x="223" y="725" type="line"/>
      <point x="77" y="725" type="line"/>
    </contour>
    <contour>
      <point x="289" y="0" type="line"/>
      <point x="470" y="0" type="line"/>
      <point x="1423" y="1460" type="line"/>
      <point x="1247" y="1460" type="line"/>
    </contour>
    <contour>
      <point x="1049" y="-20" type="line"/>
      <point x="1590" y="-20" type="line"/>
      <point x="1603" y="115" type="line"/>
      <point x="1278" y="115" type="line"/>
      <point x="1464" y="276"/>
      <point x="1607" y="386"/>
      <point x="1607" y="574" type="curve" smooth="yes"/>
      <point x="1607" y="745"/>
      <point x="1468" y="840"/>
      <point x="1324" y="840" type="curve" smooth="yes"/>
      <point x="1203" y="840"/>
      <point x="1092" y="791"/>
      <point x="1034" y="700" type="curve"/>
      <point x="1111" y="595" type="line"/>
      <point x="1161" y="663"/>
      <point x="1240" y="695"/>
      <point x="1313" y="695" type="curve" smooth="yes"/>
      <point x="1379" y="695"/>
      <point x="1444" y="651"/>
      <point x="1444" y="567" type="curve" smooth="yes"/>
      <point x="1444" y="438"/>
      <point x="1122" y="186"/>
      <point x="1049" y="112" type="curve"/>
    </contour>
  </outline>
</glyph>
<glyph name="threequarters" format="1">
  <advance width="1569"/>
  <unicode hex="00BE"/>
  <outline>
    <contour>
      <point x="1311" y="0" type="line"/>
      <point x="1463" y="0" type="line"/>
      <point x="1463" y="180" type="line"/>
      <point x="1571" y="180" type="line"/>
      <point x="1576" y="305" type="line"/>
      <point x="1463" y="305" type="line"/>
      <point x="1463" y="848" type="line"/>
      <point x="1301" y="848" type="line"/>
      <point x="927" y="302" type="line"/>
      <point x="927" y="180" type="line"/>
      <point x="1311" y="180" type="line"/>
    </contour>
    <contour>
      <point x="1094" y="305" type="line"/>
      <point x="1311" y="651" type="line"/>
      <point x="1311" y="305" type="line"/>
    </contour>
    <contour>
      <point x="77" y="584" type="line"/>
      <point x="535" y="584" type="line"/>
      <point x="535" y="725" type="line"/>
      <point x="398" y="725" type="line"/>
      <point x="398" y="1460" type="line"/>
      <point x="263" y="1460" type="line"/>
      <point x="229" y="1435"/>
      <point x="109" y="1372"/>
      <point x="63" y="1353" type="curve"/>
      <point x="63" y="1211" type="line"/>
      <point x="78" y="1216"/>
      <point x="186" y="1264"/>
      <point x="223" y="1284" type="curve"/>
      <point x="223" y="725" type="line"/>
      <point x="77" y="725" type="line"/>
    </contour>
    <contour>
      <point x="289" y="0" type="line"/>
      <point x="470" y="0" type="line"/>
      <point x="1423" y="1460" type="line"/>
      <point x="1247" y="1460" type="line"/>
    </contour>
  </outline>
</glyph>
<glyph name="Eth" format="1">
  <advance width="1512"/>
  <unicode hex="00D0"/>
  <outline>
    <component base="D"/>
    <contour>
      <point x="674" y="817" type="line"/>
      <point x="36" y="817" type="line"/>
      <point x="36" y="661" type="line"/>
      <point x="674" y="661" type="line"/>
    </contour>
  </outline>
</glyph>
<glyph name="Oslash" format="1">
  <advance width="1616"/>
  <unicode hex="00D8"/>
  <outline>
    <component base="O"/>
    <contour>
      <point x="514" y="-239" type="line"/>
      <point x="1247" y="1635" type="line"/>
      <point x="1122" y="1682" type="line"/>
      <point x="395" y="-197" type="line"/>
    </contour>
  </outline>
</glyph>
<glyph name="oslash" format="1">
  <advance width="1197"/>
  <unicode hex="00F8"/>
  <outline>
    <component base="o"/>
    <contour>
      <point x="278" y="-152" type="line"/>
      <point x="1012" y="1193" type="line"/>
      <point x="935" y="1237" type="line"/>
      <point x="207" y="-108" type="line"/>
    </contour>
  </outline>
</glyph>
<glyph name="Dcroat" format="1">
  <advance width="1509"/>
  <unicode hex="0110"/>
  <outline>
    <component base="D"/>
    <contour>
      <point x="62" y="703" type="line"/>
      <point x="62" y="794" type="line"/>
      <point x="586" y="794" type="line"/>
      <point x="586" y="703" type="line"/>
    </contour>
  </outline>
</glyph>
<glyph name="dcroat" format="1">
  <advance width="1301"/>
  <unicode hex="0111"/>
  <outline>
    <component base="d"/>
    <contour>
      <point x="140" y="1220" type="line"/>
      <point x="140" y="1331" type="line"/>
      <point x="645" y="1331" type="line"/>
      <point x="645" y="1220" type="line"/>
    </contour>
  </outline>
</glyph>
<glyph name="OE" format="1">
  <advance width="2261"/>
  <unicode hex="0152"/>
  <outline>
    <contour>
      <point x="809" y="180" type="curve" smooth="yes"/>
      <point x="517" y="180"/>
      <point x="350" y="404"/>
      <point x="350" y="723" type="curve" smooth="yes"/>
      <point x="350" y="1052"/>
      <point x="523" y="1280"/>
      <point x="810" y="1280" type="curve" smooth="yes"/>
      <point x="1161.3" y="1280"/>
      <point x="1365" y="1051"/>
      <point x="1365" y="723" type="curve" smooth="yes"/>
      <point x="1365" y="404"/>
      <point x="1165.04" y="180"/>
    </contour>
    <contour>
      <point x="810" y="-20" type="curve" smooth="yes"/>
      <point x="1225.64" y="-20"/>
      <point x="1489" y="269"/>
      <point x="1489" y="723" type="curve" smooth="yes"/>
      <point x="1489" y="1187"/>
      <point x="1218.93" y="1480"/>
      <point x="810" y="1480" type="curve" smooth="yes"/>
      <point x="379" y="1480"/>
      <point x="96" y="1189"/>
      <point x="96" y="724" type="curve" smooth="yes"/>
      <point x="96" y="267"/>
      <point x="374" y="-20"/>
    </contour>
    <contour>
      <point x="1248" y="0" type="line"/>
      <point x="2177" y="0" type="line"/>
      <point x="2185" y="191" type="line"/>
      <point x="1418" y="191" type="line"/>
      <point x="1488" y="122" type="line"/>
      <point x="1488" y="738" type="line"/>
      <point x="1417" y="667" type="line"/>
      <point x="2115" y="667" type="line"/>
      <point x="2115" y="854" type="line"/>
      <point x="1418" y="854" type="line"/>
      <point x="1488" y="785" type="line"/>
      <point x="1488" y="1342" type="line"/>
      <point x="1418" y="1274" type="line"/>
      <point x="2158" y="1274" type="line"/>
      <point x="2168" y="1460" type="line"/>
      <point x="1248" y="1460" type="line"/>
    </contour>
  </outline>
</glyph>
<glyph name="dotaccent" format="1">
  <advance width="435"/>
  <unicode hex="02D9"/>
  <outline>
    <contour>
      <point x="100" y="1182" type="line"/>
      <point x="347" y="1182" type="line"/>
      <point x="347" y="1427" type="line"/>
      <point x="100" y="1427" type="line"/>
    </contour>
  </outline>
</glyph>
<glyph name="uni0306" format="1">
  <advance width="684"/>
  <unicode hex="0306"/>
  <outline>
    <contour>
      <point x="341" y="1209" type="curve" smooth="yes"/>
      <point x="490" y="1209"/>
      <point x="608" y="1286"/>
      <point x="608" y="1460" type="curve"/>
      <point x="461" y="1460" type="line"/>
      <point x="461" y="1380"/>
      <point x="416" y="1349"/>
      <point x="341" y="1349" type="curve" smooth="yes"/>
      <point x="266" y="1349"/>
      <point x="223" y="1380"/>
      <point x="223" y="1460" type="curve"/>
      <point x="75" y="1460" type="line"/>
      <point x="75" y="1287"/>
      <point x="193" y="1209"/>
    </contour>
  </outline>
</glyph>
<glyph name="uni0307" format="1">
  <advance width="411"/>
  <unicode hex="0307"/>
  <outline>
    <contour>
      <point x="124" y="1250" type="line"/>
      <point x="311" y="1250" type="line"/>
      <point x="311" y="1460" type="line"/>
      <point x="124" y="1460" type="line"/>
    </contour>
  </outline>
</glyph>
<glyph name="Sigma" format="1">
  <advance width="1087"/>
  <unicode hex="03A3"/>
  <outline>
    <contour>
      <point x="142" y="0" type="line"/>
      <point x="142" y="1448" type="line"/>
      <point x="1028" y="1448" type="line"/>
      <point x="1018" y="1254" type="line"/>
      <point x="388" y="1254" type="line"/>
      <point x="388" y="846" type="line"/>
      <point x="976" y="846" type="line"/>
      <point x="976" y="660" type="line"/>
      <point x="388" y="660" type="line"/>
      <point x="388" y="193" type="line"/>
      <point x="1033" y="193" type="line"/>
      <point x="1026" y="0" type="line"/>
    </contour>
  </outline>
</glyph>
<glyph name="emdash" format="1">
  <advance width="2133"/>
  <unicode hex="2014"/>
  <outline>
    <contour>
      <point x="69" y="484" type="line"/>
      <point x="2135" y="484" type="line"/>
      <point x="2135" y="655" type="line"/>
      <point x="69" y="655" type="line"/>
    </contour>
  </outline>
</glyph>
<glyph name="quoteleft" format="1">
  <advance width="426"/>
  <unicode hex="2018"/>
  <outline>
    <contour>
      <point x="210" y="960" type="line"/>
      <point x="364" y="960" type="line"/>
      <point x="291" y="1460" type="line"/>
      <point x="85" y="1460" type="line"/>
    </contour>
  </outline>
</glyph>
<glyph name="quoteright" format="1">
  <advance width="422"/>
  <unicode hex="2019"/>
  <outline>
    <contour>
      <point x="74" y="960" type="line"/>
      <point x="220" y="960" type="line"/>
      <point x="394" y="1460" type="line"/>
      <point x="173" y="1460" type="line"/>
    </contour>
  </outline>
</glyph>
<glyph name="quotedblright" format="1">
  <advance width="788"/>
  <unicode hex="201D"/>
  <outline>
    <contour>
      <point x="89" y="904" type="line"/>
      <point x="246" y="904" type="line"/>
      <point x="397" y="1460" type="line"/>
      <point x="180" y="1460" type="line"/>
    </contour>
    <contour>
      <point x="411" y="904" type="line"/>
      <point x="563" y="904" type="line"/>
      <point x="727" y="1460" type="line"/>
      <point x="506" y="1460" type="line"/>
    </contour>
  </outline>
</glyph>
<glyph name="Euro" format="1">
  <advance width="1288"/>
  <unicode hex="20AC"/>
  <outline>
    <component base="C"/>
    <contour>
      <point x="861" y="515" type="line"/>
      <point x="864" y="645" type="line"/>
      <point x="293" y="645" type="line"/>
      <point x="293" y="792" type="line"/>
      <point x="864" y="792" type="line"/>
      <point x="868" y="921" type="line"/>
      <point x="-9" y="921" type="line"/>
      <point x="-12" y="792" type="line"/>
      <point x="160" y="792" type="line"/>
      <point x="160" y="645" type="line"/>
      <point x="-12" y="645" type="line"/>
      <point x="-15" y="515" type="line"/>
    </contour>
  </outline>
</glyph>
<glyph name="summation" format="1">
  <advance width="1198"/>
  <unicode hex="2211"/>
  <outline>
    <contour>
      <point x="71" y="-335" type="line"/>
      <point x="1184" y="-335" type="line"/>
      <point x="1184" y="-152" type="line"/>
      <point x="328" y="-152" type="line"/>
      <point x="898" y="581" type="line"/>
      <point x="352" y="1294" type="line"/>
      <point x="1144" y="1294" type="line"/>
      <point x="1144" y="1470" type="line"/>
      <point x="92" y="1470" type="line"/>
      <point x="92" y="1351" type="line"/>
      <point x="666" y="574" type="line"/>
      <point x="71" y="-221" type="line"/>
    </contour>
  </outline>
</glyph>
<glyph name="circumflex.cap" format="1">
  <advance width="735"/>
  <outline>
    <contour>
      <point x="31" y="1072" type="line"/>
      <point x="191" y="1072" type="line"/>
      <point x="357" y="1281" type="line"/>
      <point x="531" y="1072" type="line"/>
      <point x="693" y="1072" type="line"/>
      <point x="465" y="1430" type="line"/>
      <point x="263" y="1430" type="line"/>
    </contour>
  </outline>
</glyph>
<glyph name="grave.cap" format="1">
  <advance width="544"/>
  <outline>
    <contour>
      <point x="324" y="1058" type="line"/>
      <point x="501" y="1058" type="line"/>
      <point x="226" y="1359" type="line"/>
      <point x="-45" y="1359" type="line"/>
    </contour>
  </outline>
</glyph>
<glyph name="hungarumlaut.cap" format="1">
  <advance width="831"/>
  <outline>
    <contour>
      <point x="65" y="1058" type="line"/>
      <point x="239" y="1058" type="line"/>
      <point x="609" y="1399" type="line"/>
      <point x="403" y="1399" type="line"/>
    </contour>
    <contour>
      <point x="396" y="1058" type="line"/>
      <point x="570" y="1058" type="line"/>
      <point x="962" y="1399" type="line"/>
      <point x="750" y="1399" type="line"/>
    </contour>
  </outline>
</glyph>
